<svg width="64" height="65" viewBox="0 0 64 65" fill="none" xmlns="http://www.w3.org/2000/svg">
<g filter="url(#filter0_dd_484_13079)">
<path fill-rule="evenodd" clip-rule="evenodd" d="M14.0312 1H49.9688C56.6134 1 62 6.38657 62 13.0312V48.9688C62 55.6134 56.6134 61 49.9688 61H14.0312C7.38657 61 2 55.6134 2 48.9688V13.0312C2 6.38657 7.38657 1 14.0312 1Z" fill="white"/>
</g>
<path fill-rule="evenodd" clip-rule="evenodd" d="M42.0002 61H49.9687C55.0105 61 59.3279 57.8988 61.1175 53.5H42.0002V61Z" fill="#FFD166"/>
<path fill-rule="evenodd" clip-rule="evenodd" d="M14.0312 61H22V53.5H2.88243C4.67208 57.8988 8.98949 61 14.0312 61Z" fill="#2BB793"/>
<rect x="21.9998" y="53.5" width="20" height="7.5" fill="#83BDE4"/>
<path fill-rule="evenodd" clip-rule="evenodd" d="M30.8542 26.7915C30.1248 25.7082 29.0451 25.1665 27.6151 25.1665C27.0373 25.1665 26.4631 25.2893 25.8926 25.5348C25.322 25.7804 24.8056 26.1776 24.3434 26.7265L24.1701 25.5998H20.3567V42.0882L24.6467 41.6548V36.4548C25.3401 37.2204 26.2356 37.6032 27.3334 37.6032C28.2434 37.6032 29.0487 37.3323 29.7492 36.7907C30.4498 36.249 30.9915 35.5051 31.3742 34.559C31.757 33.6129 31.9484 32.5404 31.9484 31.3415C31.9484 29.3915 31.5837 27.8748 30.8542 26.7915ZM18.4284 33.4215C18.4284 33.826 18.4789 34.1257 18.58 34.3207C18.6812 34.5157 18.8617 34.6638 19.1217 34.7649L18.255 37.5165C17.475 37.4588 16.8395 37.3107 16.3484 37.0724C15.8573 36.834 15.4528 36.4476 15.135 35.9132C14.3839 37.0399 13.2212 37.6032 11.6467 37.6032C10.5056 37.6032 9.58477 37.2601 8.88421 36.574C8.18365 35.8879 7.83337 35.0032 7.83337 33.9199C7.83337 32.6343 8.31004 31.6521 9.26337 30.9732C10.2167 30.2943 11.6034 29.9549 13.4234 29.9549H14.2467V29.6732C14.2467 29.0954 14.1312 28.7054 13.9 28.5032C13.6689 28.301 13.2284 28.1999 12.5784 28.1999C12.2317 28.1999 11.7875 28.254 11.2459 28.3624C10.7042 28.4707 10.1517 28.6188 9.58837 28.8065L8.65671 26.0765C9.36449 25.7876 10.1336 25.5638 10.9642 25.4049C11.7948 25.246 12.5495 25.1665 13.2284 25.1665C15.0484 25.1665 16.37 25.5168 17.1934 26.2174C18.0167 26.9179 18.4284 27.9904 18.4284 29.4349V33.4215ZM12.9683 34.5914C13.2283 34.5914 13.4703 34.5264 13.6942 34.3964C13.9181 34.2664 14.1022 34.1003 14.2467 33.8981V32.1864H13.7917C13.185 32.1864 12.7372 32.2947 12.4483 32.5114C12.1594 32.7281 12.015 33.0603 12.015 33.5081C12.015 33.8403 12.1017 34.1039 12.275 34.2989C12.4483 34.4939 12.6794 34.5914 12.9683 34.5914ZM25.925 34.5482C27.0083 34.5482 27.55 33.501 27.55 31.4066C27.55 30.5254 27.4922 29.8538 27.3767 29.3916C27.2611 28.9293 27.1058 28.6224 26.9108 28.4707C26.7158 28.3191 26.4667 28.2432 26.1633 28.2432C25.5567 28.2432 25.0511 28.6043 24.6467 29.3266V33.7466C24.8344 34.0354 25.0294 34.2413 25.2317 34.3641C25.4339 34.4868 25.665 34.5482 25.925 34.5482ZM43.1825 26.0765C42.6264 25.4698 41.8645 25.1665 40.8967 25.1665C40.2034 25.1665 39.5786 25.2965 39.0225 25.5565C38.4664 25.8165 37.9211 26.2282 37.3867 26.7915L37.0834 25.5998H33.335V37.1698H37.625V29.4348C38.1161 28.6693 38.6 28.2865 39.0767 28.2865C39.2934 28.2865 39.4559 28.3659 39.5642 28.5248C39.6725 28.6837 39.7267 28.9798 39.7267 29.4132V37.1698H44.0167V28.6332C44.0167 27.5354 43.7386 26.6832 43.1825 26.0765ZM55.7384 33.4215C55.7384 33.826 55.7889 34.1257 55.89 34.3207C55.9911 34.5157 56.1717 34.6637 56.4317 34.7648L55.565 37.5165C54.785 37.4587 54.1495 37.3107 53.6584 37.0723C53.1672 36.834 52.7628 36.4476 52.445 35.9132C51.6939 37.0398 50.5311 37.6032 48.9567 37.6032C47.8156 37.6032 46.8947 37.2601 46.1942 36.574C45.4936 35.8879 45.1434 35.0032 45.1434 33.9198C45.1434 32.6343 45.62 31.6521 46.5734 30.9732C47.5267 30.2943 48.9133 29.9548 50.7334 29.9548H51.5567V29.6732C51.5567 29.0954 51.4411 28.7054 51.21 28.5032C50.9789 28.3009 50.5384 28.1998 49.8884 28.1998C49.5417 28.1998 49.0975 28.254 48.5559 28.3623C48.0142 28.4707 47.4617 28.6187 46.8984 28.8065L45.9667 26.0765C46.6745 25.7876 47.4436 25.5637 48.2742 25.4048C49.1047 25.2459 49.8595 25.1665 50.5384 25.1665C52.3584 25.1665 53.68 25.5168 54.5034 26.2173C55.3267 26.9179 55.7384 27.9904 55.7384 29.4348V33.4215ZM51.0042 34.3964C50.7803 34.5264 50.5384 34.5914 50.2784 34.5914C49.9895 34.5914 49.7584 34.4939 49.5851 34.2989C49.4117 34.1039 49.3251 33.8403 49.3251 33.5081C49.3251 33.0603 49.4695 32.7281 49.7584 32.5114C50.0473 32.2947 50.4951 32.1864 51.1017 32.1864H51.5567V33.8981C51.4123 34.1003 51.2281 34.2664 51.0042 34.3964Z" fill="#4D3951"/>
<defs>
<filter id="filter0_dd_484_13079" x="0" y="0" width="64" height="65" filterUnits="userSpaceOnUse" color-interpolation-filters="sRGB">
<feFlood flood-opacity="0" result="BackgroundImageFix"/>
<feColorMatrix in="SourceAlpha" type="matrix" values="0 0 0 0 0 0 0 0 0 0 0 0 0 0 0 0 0 0 127 0" result="hardAlpha"/>
<feOffset dy="2"/>
<feGaussianBlur stdDeviation="1"/>
<feColorMatrix type="matrix" values="0 0 0 0 0 0 0 0 0 0 0 0 0 0 0 0 0 0 0.08 0"/>
<feBlend mode="normal" in2="BackgroundImageFix" result="effect1_dropShadow_484_13079"/>
<feColorMatrix in="SourceAlpha" type="matrix" values="0 0 0 0 0 0 0 0 0 0 0 0 0 0 0 0 0 0 127 0" result="hardAlpha"/>
<feOffset/>
<feGaussianBlur stdDeviation="0.5"/>
<feColorMatrix type="matrix" values="0 0 0 0 0 0 0 0 0 0 0 0 0 0 0 0 0 0 0.16 0"/>
<feBlend mode="normal" in2="effect1_dropShadow_484_13079" result="effect2_dropShadow_484_13079"/>
<feBlend mode="normal" in="SourceGraphic" in2="effect2_dropShadow_484_13079" result="shape"/>
</filter>
</defs>
</svg>
