<svg width="100%" height="100%" viewBox="0 0 20 20" fill="none" xmlns="http://www.w3.org/2000/svg">
<path d="M10 5.13889V3.19444C10 2.125 9.15625 1.25 8.125 1.25H2.5C1.46875 1.25 0.625 2.125 0.625 3.19444V16.8056C0.625 17.875 1.46875 18.75 2.5 18.75H17.5C18.5312 18.75 19.375 17.875 19.375 16.8056V7.08333C19.375 6.01389 18.5312 5.13889 17.5 5.13889H10ZM8.125 16.8056H2.5V14.8611H8.125V16.8056ZM8.125 12.9167H2.5V10.9722H8.125V12.9167ZM8.125 9.02778H2.5V7.08333H8.125V9.02778ZM8.125 5.13889H2.5V3.19444H8.125V5.13889ZM17.5 16.8056H10V7.08333H17.5V16.8056ZM15.625 9.02778H11.875V10.9722H15.625V9.02778ZM15.625 12.9167H11.875V14.8611H15.625V12.9167Z" fill="#5E6C84"/>
</svg>
